# xmcd
#
# Track frame offsets:
#	182
#	21045
#	40442
#	58722
#	79797
#	100935
#	123857
#	145855
#	165275
#	223035
#
# Disc length: 3275 seconds
#
# Revision: 7
# Processed by: cddbd v1.5.2PL0 Copyright (c) Steve Scherf et al.
# Submitted via: EasyCDDAExtractor 15.3.0.1
#
DISCID=800cc90a
DTITLE=Olga Tañon - Exitos Y Mas
DYEAR=1995
DGENRE=Latin
TTITLE0=Me Cambio Por Ella
TTITLE1=Contigo O Sin Ti
TTITLE2=Es Mentiroso
TTITLE3=Presencie Tu Amor
TTITLE4=Vendras Llorando
TTITLE5=Una Noche Mas
TTITLE6=Ya Me Canse
TTITLE7=Aun Pienso En Ti
TTITLE8=Mega Mix
TTITLE9=Radio Mix
EXTD=
EXTT0=
EXTT1=
EXTT2=
EXTT3=
EXTT4=
EXTT5=
EXTT6=
EXTT7=
EXTT8=
EXTT9=
PLAYORDER=
